{
    "asset" : {
        "generator" : "Khronos glTF Blender I/O v1.8.19",
        "version" : "2.0"
    },
    "scene" : 0,
    "scenes" : [
        {
            "name" : "Scene",
            "nodes" : [
                0
            ]
        }
    ],
    "nodes" : [
        {
            "mesh" : 0,
            "name" : "\u96d5\u585103"
        }
    ],
    "materials" : [
        {
            "doubleSided" : true,
            "name" : "Mat3d66-860375-2-7658.001",
            "pbrMetallicRoughness" : {
                "baseColorFactor" : [
                    0.031373001635074615,
                    0.031373001635074615,
                    0.031373001635074615,
                    1
                ],
                "metallicFactor" : 0,
                "roughnessFactor" : 0.5
            }
        },
        {
            "doubleSided" : true,
            "name" : "Mat3d66-860375-9-1759.002",
            "pbrMetallicRoughness" : {
                "baseColorTexture" : {
                    "index" : 0
                },
                "metallicFactor" : 0,
                "roughnessFactor" : 0.5
            }
        },
        {
            "doubleSided" : true,
            "name" : "Mat3d66-860375-9-1759.003",
            "pbrMetallicRoughness" : {
                "baseColorTexture" : {
                    "index" : 1
                },
                "metallicFactor" : 0,
                "roughnessFactor" : 0.5
            }
        },
        {
            "doubleSided" : true,
            "name" : "Standardmaterial",
            "pbrMetallicRoughness" : {
                "baseColorFactor" : [
                    0.20000000298023224,
                    0.20000000298023224,
                    0.20000000298023224,
                    1
                ],
                "metallicFactor" : 0.35433071851730347,
                "roughnessFactor" : 0.7362204790115356
            }
        },
        {
            "doubleSided" : true,
            "name" : "Mat3d66-860375-7-8003",
            "pbrMetallicRoughness" : {
                "baseColorFactor" : [
                    0.058823999017477036,
                    0.058823999017477036,
                    0.058823999017477036,
                    1
                ],
                "metallicFactor" : 0,
                "roughnessFactor" : 0.5
            }
        },
        {
            "doubleSided" : true,
            "name" : "Mat3d66-860375-2-7658",
            "pbrMetallicRoughness" : {
                "baseColorFactor" : [
                    0.031373001635074615,
                    0.031373001635074615,
                    0.031373001635074615,
                    1
                ],
                "metallicFactor" : 0,
                "roughnessFactor" : 0.7204724550247192
            }
        }
    ],
    "meshes" : [
        {
            "name" : "Obj3d66-860375-46-158",
            "primitives" : [
                {
                    "attributes" : {
                        "POSITION" : 0,
                        "NORMAL" : 1,
                        "TEXCOORD_0" : 2
                    },
                    "indices" : 3,
                    "material" : 0
                },
                {
                    "attributes" : {
                        "POSITION" : 4,
                        "NORMAL" : 5,
                        "TEXCOORD_0" : 6
                    },
                    "indices" : 7,
                    "material" : 1
                },
                {
                    "attributes" : {
                        "POSITION" : 8,
                        "NORMAL" : 9,
                        "TEXCOORD_0" : 10
                    },
                    "indices" : 11,
                    "material" : 2
                },
                {
                    "attributes" : {
                        "POSITION" : 12,
                        "NORMAL" : 13,
                        "TEXCOORD_0" : 14
                    },
                    "indices" : 15,
                    "material" : 3
                },
                {
                    "attributes" : {
                        "POSITION" : 16,
                        "NORMAL" : 17,
                        "TEXCOORD_0" : 18
                    },
                    "indices" : 19,
                    "material" : 4
                },
                {
                    "attributes" : {
                        "POSITION" : 20,
                        "NORMAL" : 21,
                        "TEXCOORD_0" : 22
                    },
                    "indices" : 23,
                    "material" : 5
                }
            ]
        }
    ],
    "textures" : [
        {
            "sampler" : 0,
            "source" : 0
        },
        {
            "sampler" : 0,
            "source" : 0
        }
    ],
    "images" : [
        {
            "bufferView" : 8,
            "mimeType" : "image/jpeg",
            "name" : "3d66Model-860375-files-3"
        }
    ],
    "accessors" : [
        {
            "bufferView" : 0,
            "componentType" : 5126,
            "count" : 8,
            "max" : [
                0.1507883071899414,
                0.7625761032104492,
                0.15459537506103516
            ],
            "min" : [
                -0.1507883071899414,
                0.7625761032104492,
                -0.15459489822387695
            ],
            "type" : "VEC3"
        },
        {
            "bufferView" : 1,
            "componentType" : 5126,
            "count" : 8,
            "type" : "VEC3"
        },
        {
            "bufferView" : 2,
            "componentType" : 5126,
            "count" : 8,
            "type" : "VEC2"
        },
        {
            "bufferView" : 3,
            "componentType" : 5123,
            "count" : 24,
            "type" : "SCALAR"
        },
        {
            "bufferView" : 4,
            "componentType" : 5126,
            "count" : 16,
            "max" : [
                0.1507883071899414,
                0.7625761032104492,
                0.15459537506103516
            ],
            "min" : [
                -0.1507883071899414,
                0.6972675323486328,
                -0.15459489822387695
            ],
            "type" : "VEC3"
        },
        {
            "bufferView" : 5,
            "componentType" : 5126,
            "count" : 16,
            "type" : "VEC3"
        },
        {
            "bufferView" : 6,
            "componentType" : 5126,
            "count" : 16,
            "type" : "VEC2"
        },
        {
            "bufferView" : 7,
            "componentType" : 5123,
            "count" : 24,
            "type" : "SCALAR"
        },
        {
            "bufferView" : 9,
            "componentType" : 5126,
            "count" : 44,
            "max" : [
                0.1507883071899414,
                0.8094964027404785,
                0.15459537506103516
            ],
            "min" : [
                -0.1507883071899414,
                0.7694962024688721,
                -0.15459489822387695
            ],
            "type" : "VEC3"
        },
        {
            "bufferView" : 10,
            "componentType" : 5126,
            "count" : 44,
            "type" : "VEC3"
        },
        {
            "bufferView" : 11,
            "componentType" : 5126,
            "count" : 44,
            "type" : "VEC2"
        },
        {
            "bufferView" : 12,
            "componentType" : 5123,
            "count" : 78,
            "type" : "SCALAR"
        },
        {
            "bufferView" : 13,
            "componentType" : 5126,
            "count" : 9785,
            "max" : [
                0.13492202758789062,
                1.3279051780700684,
                0.10218572616577148
            ],
            "min" : [
                -0.13255882263183594,
                0.8641817569732666,
                -0.0753335952758789
            ],
            "type" : "VEC3"
        },
        {
            "bufferView" : 14,
            "componentType" : 5126,
            "count" : 9785,
            "type" : "VEC3"
        },
        {
            "bufferView" : 15,
            "componentType" : 5126,
            "count" : 9785,
            "type" : "VEC2"
        },
        {
            "bufferView" : 16,
            "componentType" : 5123,
            "count" : 48240,
            "type" : "SCALAR"
        },
        {
            "bufferView" : 17,
            "componentType" : 5126,
            "count" : 161,
            "max" : [
                0.10005378723144531,
                0.8695094585418701,
                0.10125112533569336
            ],
            "min" : [
                -0.11052322387695312,
                0.8063366413116455,
                -0.10932493209838867
            ],
            "type" : "VEC3"
        },
        {
            "bufferView" : 18,
            "componentType" : 5126,
            "count" : 161,
            "type" : "VEC3"
        },
        {
            "bufferView" : 19,
            "componentType" : 5126,
            "count" : 161,
            "type" : "VEC2"
        },
        {
            "bufferView" : 20,
            "componentType" : 5123,
            "count" : 612,
            "type" : "SCALAR"
        },
        {
            "bufferView" : 21,
            "componentType" : 5126,
            "count" : 322,
            "max" : [
                0.1507883071899414,
                0.7694962024688721,
                0.15459537506103516
            ],
            "min" : [
                -0.1507883071899414,
                0,
                -0.15459489822387695
            ],
            "type" : "VEC3"
        },
        {
            "bufferView" : 22,
            "componentType" : 5126,
            "count" : 322,
            "type" : "VEC3"
        },
        {
            "bufferView" : 23,
            "componentType" : 5126,
            "count" : 322,
            "type" : "VEC2"
        },
        {
            "bufferView" : 24,
            "componentType" : 5123,
            "count" : 558,
            "type" : "SCALAR"
        }
    ],
    "bufferViews" : [
        {
            "buffer" : 0,
            "byteLength" : 96,
            "byteOffset" : 0
        },
        {
            "buffer" : 0,
            "byteLength" : 96,
            "byteOffset" : 96
        },
        {
            "buffer" : 0,
            "byteLength" : 64,
            "byteOffset" : 192
        },
        {
            "buffer" : 0,
            "byteLength" : 48,
            "byteOffset" : 256
        },
        {
            "buffer" : 0,
            "byteLength" : 192,
            "byteOffset" : 304
        },
        {
            "buffer" : 0,
            "byteLength" : 192,
            "byteOffset" : 496
        },
        {
            "buffer" : 0,
            "byteLength" : 128,
            "byteOffset" : 688
        },
        {
            "buffer" : 0,
            "byteLength" : 48,
            "byteOffset" : 816
        },
        {
            "buffer" : 0,
            "byteLength" : 150113,
            "byteOffset" : 864
        },
        {
            "buffer" : 0,
            "byteLength" : 528,
            "byteOffset" : 150980
        },
        {
            "buffer" : 0,
            "byteLength" : 528,
            "byteOffset" : 151508
        },
        {
            "buffer" : 0,
            "byteLength" : 352,
            "byteOffset" : 152036
        },
        {
            "buffer" : 0,
            "byteLength" : 156,
            "byteOffset" : 152388
        },
        {
            "buffer" : 0,
            "byteLength" : 117420,
            "byteOffset" : 152544
        },
        {
            "buffer" : 0,
            "byteLength" : 117420,
            "byteOffset" : 269964
        },
        {
            "buffer" : 0,
            "byteLength" : 78280,
            "byteOffset" : 387384
        },
        {
            "buffer" : 0,
            "byteLength" : 96480,
            "byteOffset" : 465664
        },
        {
            "buffer" : 0,
            "byteLength" : 1932,
            "byteOffset" : 562144
        },
        {
            "buffer" : 0,
            "byteLength" : 1932,
            "byteOffset" : 564076
        },
        {
            "buffer" : 0,
            "byteLength" : 1288,
            "byteOffset" : 566008
        },
        {
            "buffer" : 0,
            "byteLength" : 1224,
            "byteOffset" : 567296
        },
        {
            "buffer" : 0,
            "byteLength" : 3864,
            "byteOffset" : 568520
        },
        {
            "buffer" : 0,
            "byteLength" : 3864,
            "byteOffset" : 572384
        },
        {
            "buffer" : 0,
            "byteLength" : 2576,
            "byteOffset" : 576248
        },
        {
            "buffer" : 0,
            "byteLength" : 1116,
            "byteOffset" : 578824
        }
    ],
    "samplers" : [
        {
            "magFilter" : 9729,
            "minFilter" : 9987
        }
    ],
    "buffers" : [
        {
            "byteLength" : 579940,
            "uri" : "data:application/octet-stream;base64,"
        }
    ]
}
